  0
SECTION
  2
HEADER
  9
$EXTMIN
 10
406.35
 20
410.57
  9
$EXTMAX
 10
597.15
 20
590.70
  9
$LIMMIN
 10
406.35
 20
410.57
  9
$LIMMAX
 10
597.15
 20
590.70
  0
ENDSEC
  0
SECTION
  2
TABLES
  0
TABLE
  2
LAYER
 70
    18
  0
LAYER
  2
0
 70
    64
 62
     7
  6
CONTINUOUS
  0
LAYER
  2
_BOARD
 70
    64
 62
    254
  6
CONTINUOUS
  0
LAYER
  2
_DRILL
 70
    64
 62
    251
  6
CONTINUOUS
  0
ENDTAB
  0
ENDSEC
  0
SECTION
  2
BLOCKS
  0
BLOCK
  8
0
  2
_HOLE
 70
    64
 10
0.00
 20
0.00
  0
CIRCLE
  8
0
 10
0.00
 20
0.00
 40
0.500
  0
ENDBLK
  8
0
  0
ENDSEC
  0
SECTION
  2
ENTITIES
  0
POLYLINE
  8
_BOARD
 66
     1
 62
     3
 10
0.00
 20
0.00
 70
     1
 40
0.00
 41
0.00
  0
VERTEX
  8
_BOARD
 10
406.50
 20
414.00
 40
0.00
 41
0.00
  0
VERTEX
  8
_BOARD
 10
406.50
 20
519.00
  0
VERTEX
  8
_BOARD
 10
406.50
 20
519.00
 40
0.00
 41
0.00
  0
VERTEX
  8
_BOARD
 10
462.50
 20
519.00
  0
VERTEX
  8
_BOARD
 10
462.50
 20
519.00
 40
0.00
 41
0.00
  0
VERTEX
  8
_BOARD
 10
462.50
 20
581.66
  0
VERTEX
  8
_BOARD
 10
462.50
 20
581.66
 40
0.00
 41
0.00
  0
VERTEX
  8
_BOARD
 10
466.84
 20
586.00
  0
VERTEX
  8
_BOARD
 10
466.84
 20
586.00
 40
0.00
 41
0.00
  0
VERTEX
  8
_BOARD
 10
517.50
 20
586.00
  0
VERTEX
  8
_BOARD
 10
517.50
 20
586.00
 40
0.00
 41
0.00
  0
VERTEX
  8
_BOARD
 10
517.50
 20
587.35
  0
VERTEX
  8
_BOARD
 10
517.50
 20
587.35
 40
0.00
 41
0.00
  0
VERTEX
  8
_BOARD
 10
520.70
 20
590.55
  0
VERTEX
  8
_BOARD
 10
520.70
 20
590.55
 40
0.00
 41
0.00
  0
VERTEX
  8
_BOARD
 10
530.83
 20
590.55
  0
VERTEX
  8
_BOARD
 10
530.83
 20
590.55
 40
0.00
 41
0.00
  0
VERTEX
  8
_BOARD
 10
534.00
 20
587.38
  0
VERTEX
  8
_BOARD
 10
534.00
 20
587.38
 40
0.00
 41
0.00
  0
VERTEX
  8
_BOARD
 10
534.00
 20
586.00
  0
VERTEX
  8
_BOARD
 10
534.00
 20
586.00
 40
0.00
 41
0.00
  0
VERTEX
  8
_BOARD
 10
581.66
 20
586.00
  0
VERTEX
  8
_BOARD
 10
581.66
 20
586.00
 40
0.00
 41
0.00
  0
VERTEX
  8
_BOARD
 10
586.00
 20
581.66
  0
VERTEX
  8
_BOARD
 10
586.00
 20
581.66
 40
0.00
 41
0.00
  0
VERTEX
  8
_BOARD
 10
586.00
 20
563.50
  0
VERTEX
  8
_BOARD
 10
586.00
 20
563.50
 40
0.00
 41
0.00
  0
VERTEX
  8
_BOARD
 10
594.21
 20
563.50
  0
VERTEX
  8
_BOARD
 10
594.21
 20
563.50
 40
0.00
 41
0.00
  0
VERTEX
  8
_BOARD
 10
597.00
 20
560.71
  0
VERTEX
  8
_BOARD
 10
597.00
 20
560.71
 40
0.00
 41
0.00
  0
VERTEX
  8
_BOARD
 10
597.00
 20
432.27
  0
VERTEX
  8
_BOARD
 10
597.00
 20
432.27
 40
0.00
 41
0.00
  0
VERTEX
  8
_BOARD
 10
593.73
 20
429.00
  0
VERTEX
  8
_BOARD
 10
593.73
 20
429.00
 40
0.00
 41
0.00
  0
VERTEX
  8
_BOARD
 10
593.50
 20
429.00
  0
VERTEX
  8
_BOARD
 10
593.50
 20
429.00
 40
0.00
 41
0.00
  0
VERTEX
  8
_BOARD
 10
593.50
 20
414.00
  0
VERTEX
  8
_BOARD
 10
593.50
 20
414.00
 40
0.00
 41
0.00
  0
VERTEX
  8
_BOARD
 10
406.50
 20
414.00
 40
0.00
 41
0.00
  0
VERTEX
  8
_BOARD
 10
406.50
 20
414.00
  0
SEQEND
  8
_BOARD
  0
INSERT
  8
_DRILL
  2
_HOLE
 10
574.67
 20
424.67
 41
3.50
 42
3.50
  0
INSERT
  8
_DRILL
  2
_HOLE
 10
567.05
 20
424.67
 41
3.50
 42
3.50
  0
INSERT
  8
_DRILL
  2
_HOLE
 10
570.87
 20
433.67
 41
1.25
 42
1.25
  0
INSERT
  8
_DRILL
  2
_HOLE
 10
568.33
 20
433.67
 41
1.25
 42
1.25
  0
INSERT
  8
_DRILL
  2
_HOLE
 10
472.30
 20
563.25
 41
3.50
 42
3.50
  0
INSERT
  8
_DRILL
  2
_HOLE
 10
472.30
 20
570.87
 41
3.50
 42
3.50
  0
INSERT
  8
_DRILL
  2
_HOLE
 10
481.30
 20
567.05
 41
1.25
 42
1.25
  0
INSERT
  8
_DRILL
  2
_HOLE
 10
481.30
 20
569.60
 41
1.25
 42
1.25
  0
INSERT
  8
_DRILL
  2
_HOLE
 10
472.96
 20
529.59
 41
3.50
 42
3.50
  0
INSERT
  8
_DRILL
  2
_HOLE
 10
472.96
 20
539.75
 41
3.50
 42
3.50
  0
INSERT
  8
_DRILL
  2
_HOLE
 10
481.96
 20
528.32
 41
1.25
 42
1.25
  0
INSERT
  8
_DRILL
  2
_HOLE
 10
481.96
 20
530.86
 41
1.25
 42
1.25
  0
INSERT
  8
_DRILL
  2
_HOLE
 10
481.96
 20
533.40
 41
1.25
 42
1.25
  0
INSERT
  8
_DRILL
  2
_HOLE
 10
481.96
 20
535.94
 41
1.25
 42
1.25
  0
INSERT
  8
_DRILL
  2
_HOLE
 10
481.96
 20
538.48
 41
1.25
 42
1.25
  0
INSERT
  8
_DRILL
  2
_HOLE
 10
481.96
 20
541.02
 41
1.25
 42
1.25
  0
INSERT
  8
_DRILL
  2
_HOLE
 10
542.92
 20
567.05
 41
1.40
 42
1.40
  0
INSERT
  8
_DRILL
  2
_HOLE
 10
546.42
 20
567.05
 41
1.40
 42
1.40
  0
INSERT
  8
_DRILL
  2
_HOLE
 10
549.92
 20
567.05
 41
1.40
 42
1.40
  0
INSERT
  8
_DRILL
  2
_HOLE
 10
553.42
 20
567.05
 41
1.40
 42
1.40
  0
INSERT
  8
_DRILL
  2
_HOLE
 10
556.92
 20
567.05
 41
1.40
 42
1.40
  0
INSERT
  8
_DRILL
  2
_HOLE
 10
560.42
 20
567.05
 41
1.40
 42
1.40
  0
INSERT
  8
_DRILL
  2
_HOLE
 10
563.92
 20
567.05
 41
1.40
 42
1.40
  0
INSERT
  8
_DRILL
  2
_HOLE
 10
567.42
 20
567.05
 41
1.40
 42
1.40
  0
INSERT
  8
_DRILL
  2
_HOLE
 10
570.92
 20
567.05
 41
1.40
 42
1.40
  0
INSERT
  8
_DRILL
  2
_HOLE
 10
574.42
 20
567.05
 41
1.40
 42
1.40
  0
INSERT
  8
_DRILL
  2
_HOLE
 10
542.92
 20
573.05
 41
1.40
 42
1.40
  0
INSERT
  8
_DRILL
  2
_HOLE
 10
546.42
 20
573.05
 41
1.40
 42
1.40
  0
INSERT
  8
_DRILL
  2
_HOLE
 10
549.92
 20
573.05
 41
1.40
 42
1.40
  0
INSERT
  8
_DRILL
  2
_HOLE
 10
553.42
 20
573.05
 41
1.40
 42
1.40
  0
INSERT
  8
_DRILL
  2
_HOLE
 10
556.92
 20
573.05
 41
1.40
 42
1.40
  0
INSERT
  8
_DRILL
  2
_HOLE
 10
560.42
 20
573.05
 41
1.40
 42
1.40
  0
INSERT
  8
_DRILL
  2
_HOLE
 10
563.92
 20
573.05
 41
1.40
 42
1.40
  0
INSERT
  8
_DRILL
  2
_HOLE
 10
567.42
 20
573.05
 41
1.40
 42
1.40
  0
INSERT
  8
_DRILL
  2
_HOLE
 10
570.92
 20
573.05
 41
1.40
 42
1.40
  0
INSERT
  8
_DRILL
  2
_HOLE
 10
574.42
 20
573.05
 41
1.40
 42
1.40
  0
INSERT
  8
_DRILL
  2
_HOLE
 10
493.39
 20
567.05
 41
0.91
 42
0.91
  0
INSERT
  8
_DRILL
  2
_HOLE
 10
493.39
 20
564.51
 41
0.91
 42
0.91
  0
INSERT
  8
_DRILL
  2
_HOLE
 10
493.39
 20
561.98
 41
0.91
 42
0.91
  0
INSERT
  8
_DRILL
  2
_HOLE
 10
493.39
 20
559.43
 41
0.91
 42
0.91
  0
INSERT
  8
_DRILL
  2
_HOLE
 10
493.39
 20
556.89
 41
0.91
 42
0.91
  0
INSERT
  8
_DRILL
  2
_HOLE
 10
493.39
 20
554.36
 41
0.91
 42
0.91
  0
INSERT
  8
_DRILL
  2
_HOLE
 10
493.39
 20
551.82
 41
0.91
 42
0.91
  0
INSERT
  8
_DRILL
  2
_HOLE
 10
493.39
 20
549.27
 41
0.91
 42
0.91
  0
INSERT
  8
_DRILL
  2
_HOLE
 10
493.39
 20
546.74
 41
0.91
 42
0.91
  0
INSERT
  8
_DRILL
  2
_HOLE
 10
493.39
 20
544.20
 41
0.91
 42
0.91
  0
INSERT
  8
_DRILL
  2
_HOLE
 10
493.39
 20
541.65
 41
0.91
 42
0.91
  0
INSERT
  8
_DRILL
  2
_HOLE
 10
493.39
 20
539.12
 41
0.91
 42
0.91
  0
INSERT
  8
_DRILL
  2
_HOLE
 10
490.86
 20
539.12
 41
0.91
 42
0.91
  0
INSERT
  8
_DRILL
  2
_HOLE
 10
490.86
 20
541.65
 41
0.91
 42
0.91
  0
INSERT
  8
_DRILL
  2
_HOLE
 10
490.86
 20
544.20
 41
0.91
 42
0.91
  0
INSERT
  8
_DRILL
  2
_HOLE
 10
490.86
 20
546.74
 41
0.91
 42
0.91
  0
INSERT
  8
_DRILL
  2
_HOLE
 10
490.86
 20
549.27
 41
0.91
 42
0.91
  0
INSERT
  8
_DRILL
  2
_HOLE
 10
490.86
 20
551.82
 41
0.91
 42
0.91
  0
INSERT
  8
_DRILL
  2
_HOLE
 10
490.86
 20
554.36
 41
0.91
 42
0.91
  0
INSERT
  8
_DRILL
  2
_HOLE
 10
490.86
 20
556.89
 41
0.91
 42
0.91
  0
INSERT
  8
_DRILL
  2
_HOLE
 10
490.86
 20
559.43
 41
0.91
 42
0.91
  0
INSERT
  8
_DRILL
  2
_HOLE
 10
490.86
 20
561.98
 41
0.91
 42
0.91
  0
INSERT
  8
_DRILL
  2
_HOLE
 10
490.86
 20
564.51
 41
0.91
 42
0.91
  0
INSERT
  8
_DRILL
  2
_HOLE
 10
490.86
 20
567.05
 41
0.91
 42
0.91
  0
INSERT
  8
_DRILL
  2
_HOLE
 10
408.47
 20
472.13
 41
0.60
 42
0.60
  0
INSERT
  8
_DRILL
  2
_HOLE
 10
409.72
 20
472.13
 41
0.60
 42
0.60
  0
INSERT
  8
_DRILL
  2
_HOLE
 10
410.97
 20
472.13
 41
0.60
 42
0.60
  0
INSERT
  8
_DRILL
  2
_HOLE
 10
412.22
 20
472.13
 41
0.60
 42
0.60
  0
INSERT
  8
_DRILL
  2
_HOLE
 10
408.47
 20
514.68
 41
0.60
 42
0.60
  0
INSERT
  8
_DRILL
  2
_HOLE
 10
409.72
 20
514.68
 41
0.60
 42
0.60
  0
INSERT
  8
_DRILL
  2
_HOLE
 10
410.97
 20
514.68
 41
0.60
 42
0.60
  0
INSERT
  8
_DRILL
  2
_HOLE
 10
412.22
 20
514.68
 41
0.60
 42
0.60
  0
INSERT
  8
_DRILL
  2
_HOLE
 10
581.22
 20
570.00
 41
2.50
 42
2.50
  0
INSERT
  8
_DRILL
  2
_HOLE
 10
535.51
 20
570.00
 41
2.50
 42
2.50
  0
INSERT
  8
_DRILL
  2
_HOLE
 10
525.14
 20
569.55
 41
12.80
 42
12.80
  0
INSERT
  8
_DRILL
  2
_HOLE
 10
587.38
 20
554.86
 41
5.00
 42
5.00
  0
INSERT
  8
_DRILL
  2
_HOLE
 10
529.76
 20
554.50
 41
5.00
 42
5.00
  0
INSERT
  8
_DRILL
  2
_HOLE
 10
525.76
 20
583.57
 41
5.00
 42
5.00
  0
INSERT
  8
_DRILL
  2
_HOLE
 10
468.51
 20
580.39
 41
3.25
 42
3.25
  0
INSERT
  8
_DRILL
  2
_HOLE
 10
467.51
 20
514.35
 41
3.25
 42
3.25
  0
INSERT
  8
_DRILL
  2
_HOLE
 10
426.01
 20
514.35
 41
3.25
 42
3.25
  0
INSERT
  8
_DRILL
  2
_HOLE
 10
588.01
 20
420.70
 41
3.25
 42
3.25
  0
INSERT
  8
_DRILL
  2
_HOLE
 10
488.11
 20
419.30
 41
3.25
 42
3.25
  0
INSERT
  8
_DRILL
  2
_HOLE
 10
420.51
 20
420.00
 41
3.25
 42
3.25
  0
ENDSEC
  0
EOF
